# xmcd CD database file
# Copyright (C) 1995-1998 Ti Kan
#
# Track frame offsets:
#	150
#	13775
#	27965
#	42327
#	56245
#	69942
#	83782
#	96672
#	109300
#	121655
#	134232
#	146795
#	159027
#	171542
#	183860
#	197425
#	211710
#	225922
#	240045
#	253242
#	268140
#	283560
#	298467
#
# Disc length: 4176 seconds
#
# Revision: 1
# Processed by: cddbd v1.4b41PL1 Copyright (c) Steve Scherf et al.
# Submitted via: CDex 1.30
#
DISCID=53104e17
DTITLE=Various Artist - Backwoods Blues (1926-1935)
DYEAR=2000
DGENRE=Blues
TTITLE0=Bo Weavil Jackson (Sam Butler 1926) - Pistol Blues
TTITLE1=Bo Weavil Jackson (Sam Butler 1926) - Some Scream High Yellow
TTITLE2=Bo Weavil Jackson (Sam Butler 1926) - You Can't Keep No Brown (Pm)
TTITLE3=Bo Weavil Jackson (Sam Butler 1926) - When The Saints Come Marching 
TTITLE3=Home
TTITLE4=Bo Weavil Jackson (Sam Butler 1926) - I'm On My Way To The Kingdom L
TTITLE4=and
TTITLE5=Bo Weavil Jackson (Sam Butler 1926) - Why Do You Moan?
TTITLE6=Bo Weavil Jackson (Sam Butler 1926) - Devil And My Brown Blues
TTITLE7=Bo Weavil Jackson (Sam Butler 1926) - Poor Boy Blues
TTITLE8=Bo Weavil Jackson (Sam Butler 1926) - Jefferson County Blues
TTITLE9=Bo Weavil Jackson (Sam Butler 1926) - Jefferson County Blues (alt. t
TTITLE9=ake)
TTITLE10=Bo Weavil Jackson (Sam Butler 1926) - You Can't Keep No Brown (Vo)
TTITLE11=Bo Weavil Jackson (Sam Butler 1926) - Christians Fight On, Your Tim
TTITLE11=e Ain't Long
TTITLE12=Bo Weavil Jackson (Sam Butler 1926) - Heaven Is My View
TTITLE13=Bobby Grant (1927) - Nappy Head Blues
TTITLE14=Bobby Grant (1927) - Lonesome Atlanta Blues
TTITLE15=King Solomon Hill (1932) - Whoopee Blues (take 1)
TTITLE16=King Solomon Hill (1932) - Whoopee Blues (take 2)
TTITLE17=King Solomon Hill (1932) - Down On My Bended Knee (take 1)
TTITLE18=King Solomon Hill (1932) - Down On My Bended Knee (take 2)
TTITLE19=King Solomon Hill (1932) - The Gone Dead Train
TTITLE20=King Solomon Hill (1932) - Tell Me Baby
TTITLE21=Lane Hardin (1935) - Hard Time Blues
TTITLE22=Lane Hardin (1935) - California Desert Blues
EXTD=\nYEAR: 2000  ID3G:   0
EXTT0=
EXTT1=
EXTT2=
EXTT3=
EXTT4=
EXTT5=
EXTT6=
EXTT7=
EXTT8=
EXTT9=
EXTT10=
EXTT11=
EXTT12=
EXTT13=
EXTT14=
EXTT15=
EXTT16=
EXTT17=
EXTT18=
EXTT19=
EXTT20=
EXTT21=
EXTT22=
PLAYORDER=
